# xmcd
#
# Track frame offsets: 
#        150
#        18335
#        38948
#        54241
#        77306
#        95295
#        112554
#        132829
#        151923
#        177270
#
# Disc length: 2546 seconds
#
# Revision: 0
# Processed by: cddbd v1.5.2PL0 Copyright (c) Steve Scherf et al.
# Submitted via: ExactAudioCopyFreeDBPlugin 1.0
#
DISCID=6209f00a
DTITLE=Mario Donatone - Mario Donatone and One Night Band
DYEAR=2001
DGENRE=Blues
TTITLE0=Sweet Love Sweet Angel
TTITLE1=Summer Nights 
TTITLE2=Morning Song
TTITLE3=Get What You Need
TTITLE4=Too Far Gone
TTITLE5=So Happy
TTITLE6=A Long Day Back Home
TTITLE7=One Night Band
TTITLE8=Autumn Blues Melody
TTITLE9=Ernesto
EXTD=
EXTT0=
EXTT1=
EXTT2=
EXTT3=
EXTT4=
EXTT5=
EXTT6=
EXTT7=
EXTT8=
EXTT9=
PLAYORDER=
